HIERARCHY
ROOT Hips
{
  OFFSET 77.7475 95.8264 -32.2795
  CHANNELS 6 Xposition Yposition Zposition Zrotation Xrotation Yrotation
  JOINT RightUpLeg
  {
    OFFSET -8.9458 -8.66707 0.101652
    CHANNELS 3 Zrotation Xrotation Yrotation
    JOINT RightLeg
    {
      OFFSET 0 -44.4227 1.3727
      CHANNELS 3 Zrotation Xrotation Yrotation
      JOINT RightFoot
      {
        OFFSET 0.253549 -42.0924 -1.46059
        CHANNELS 3 Zrotation Xrotation Yrotation
        JOINT RightToes
        {
          OFFSET 0.04 -4.41509 8.4991
          CHANNELS 3 Zrotation Xrotation Yrotation
          End Site
          {
            OFFSET -0.08 -0.137448 9.77979
          }
        }
      }
    }
  }
  JOINT Spine
  {
    OFFSET 0 11.8905 0
    CHANNELS 3 Zrotation Xrotation Yrotation
    JOINT Spine1
    {
      OFFSET 0 25.6574 0.127663
      CHANNELS 3 Zrotation Xrotation Yrotation
      JOINT HEad
      {
        OFFSET 0 8.73416 0.011341
        CHANNELS 3 Zrotation Xrotation Yrotation
        End Site
        {
          OFFSET -0.29 12.7742 2.51395
        }
      }
      JOINT LeftShoulder1
      {
        OFFSET 8.99 -0.362252 -0.22
        CHANNELS 3 Zrotation Xrotation Yrotation
        JOINT LeftArm
        {
          OFFSET 10.2827 -0.00338 0.322123
          CHANNELS 3 Zrotation Xrotation Yrotation
          JOINT LeftForeArm
          {
            OFFSET 32.7669 0.099144 -1.42434
            CHANNELS 3 Zrotation Xrotation Yrotation
            JOINT LeftHand
            {
              OFFSET 27.5643 0.085362 1.02216
              CHANNELS 3 Zrotation Xrotation Yrotation
              End Site
              {
                OFFSET 16.7443 -0.6 1.50291
              }
            }
          }
        }
      }
      JOINT RightShoulder
      {
        OFFSET -8.99 -0.362252 -0.22
        CHANNELS 3 Zrotation Xrotation Yrotation
        JOINT RightArm
        {
          OFFSET -10.2827 -0.00338 0.322123
          CHANNELS 3 Zrotation Xrotation Yrotation
          JOINT RightForeArm
          {
            OFFSET -32.8971 0.099144 -1.42434
            CHANNELS 3 Zrotation Xrotation Yrotation
            JOINT RightHand
            {
              OFFSET -27.4921 0.085362 1.02216
              CHANNELS 3 Zrotation Xrotation Yrotation
              End Site
              {
                OFFSET -16.6312 -0.6 1.50291
              }
            }
          }
        }
      }
    }
  }
  JOINT LeftUpLeg
  {
    OFFSET 8.9458 -8.66707 0.101652
    CHANNELS 3 Zrotation Xrotation Yrotation
    JOINT LeftLeg
    {
      OFFSET 0 -44.4227 1.3727
      CHANNELS 3 Zrotation Xrotation Yrotation
      JOINT LeftFoot
      {
        OFFSET -0.253549 -42.0924 -1.46059
        CHANNELS 3 Zrotation Xrotation Yrotation
        JOINT LeftToes
        {
          OFFSET -0.04 -4.41509 8.4991
          CHANNELS 3 Zrotation Xrotation Yrotation
          End Site
          {
            OFFSET 0.08 -0.047448 9.77979
          }
        }
      }
    }
  }
}
MOTION
Frames:	8
Frame Time:	0.0166667
97.8034 97.6692 -21.132 5.7062 3.68694 160.195 -12.9415 -9.49036 5.33511 11.7299 37.2949 -20.6798 1.58173 -0.303407 -0.334419 0.0462048 0.000533403 0.662642 5.60062 8.30982 -10.3643 1.11829e-010 -5.56741e-009 -9.54803e-011 -19.216 11.4641 40.7343 0 3.97569e-016 -0 -34.9218 -79.1554 -26.4634 26.9928 33.562 -138.095 2.99306 13.4707 31.7407 8.87482 5.54676 -2.06137 88.0911 -2.04096 76.2708 23.2756 53.1063 80.9718 0.0279579 20.6296 4.26633 34.5132 -14.8825 -10.7289 -18.4852 14.3206 41.398 -5.25168 -4.85912 -0.619798 -1.31974e-009 1.55935e-007 -4.90031e-009 
96.5896 97.0766 -21.3789 5.94809 3.78534 159.619 -13.4975 -13.578 2.86925 12.9773 42.3465 -20.8993 1.29048 -0.0141336 -0.387177 0.0462048 0.000533403 0.662642 5.62142 9.24848 -11.3436 0.00681496 0.00324042 -0.0343769 -19.4421 10.5231 41.8672 3.97569e-016 3.97569e-016 -6.36111e-015 -32.7644 -71.0484 -33.3972 34.8019 35.9486 -120.833 -4.8234 -1.0154 33.1835 8.51662 5.29157 -1.72103 88.478 -1.74797 76.256 23.1058 53.3107 81.7268 0.0545336 20.4748 4.2025 33.8631 -15.6574 -8.09337 -17.9227 16.9455 39.1549 -7.78211 -4.73758 -0.82038 -1.31974e-009 1.55935e-007 -4.90031e-009 
95.2452 96.3331 -21.5397 6.13902 3.90047 158.96 -14.3001 -18.1914 -0.292763 13.3636 48.2192 -19.6288 1.875 0.2901 -0.387625 0.0462048 0.000533403 0.662642 5.5456 10.1315 -12.1583 0.0243904 0.0115974 -0.123037 -19.6424 9.62889 42.9715 -1.32417e-031 -1.19271e-015 -6.36111e-015 -32.4923 -61.7528 -42.8831 38.1253 43.9876 -98.7512 6.5338 0.30473 14.0214 8.10926 5.09853 -1.26394 89.0415 -1.53008 76.3197 22.9285 53.4842 82.2989 0.226412 20.3849 3.94587 33.2457 -16.9959 -4.4548 -16.8665 20.6566 36.091 -10.4829 -4.53909 -1.00815 -1.31974e-009 1.55935e-007 -4.90031e-009 
93.8529 95.5194 -21.6664 6.25923 4.03759 158.233 -15.1927 -22.3105 -3.27203 13.1483 53.6716 -17.7685 2.55502 0.549053 -0.370738 0.0462048 0.000533403 0.662642 5.36929 10.9476 -12.7916 0.0484221 0.0230246 -0.244274 -19.8472 8.79565 44.0141 8.82781e-032 -7.95139e-016 6.36111e-015 -32.3097 -51.5921 -53.0512 28.3769 51.8076 -65.7735 -10.4907 -12.6651 13.8623 7.6978 4.93806 -0.681109 89.7095 -1.37816 76.4157 22.6921 53.6155 82.6715 0.375264 20.2355 3.79717 32.7662 -18.218 -0.919696 -15.5075 24.3799 33.037 -13.3628 -4.30608 -1.17551 -1.31974e-009 1.55935e-007 -4.90031e-009 
92.4658 94.6864 -21.7995 6.30632 4.19469 157.443 -16.1035 -25.9202 -6.01778 12.2797 58.5235 -15.4251 3.42779 0.767386 -0.34302 0.0462048 0.000533403 0.662642 5.09148 11.7118 -13.2452 0.0746058 0.0354755 -0.376379 -20.0549 7.99987 44.9761 -3.97569e-016 0 6.36111e-015 -31.4066 -43.5797 -60.1947 10.8758 51.2393 -30.5957 9.74988 -14.9539 0.775694 7.34748 4.78134 -0.0289744 90.3812 -1.27521 76.4771 22.3806 53.7095 82.9449 0.599197 20.1228 3.5744 32.409 -19.3218 2.48103 -13.9793 27.9555 30.0381 -16.2601 -4.03382 -1.30569 -1.31974e-009 1.55935e-007 -4.90031e-009 
91.1129 93.8863 -21.9836 6.28935 4.36268 156.59 -16.9283 -29.0062 -8.47783 10.6927 62.6366 -12.6707 4.12332 0.93804 -0.314954 0.0462048 0.000533403 0.662642 4.70688 12.4225 -13.4983 0.0986375 0.0469033 -0.497636 -20.2327 7.24596 45.8276 -0 0 6.36111e-015 -30.6817 -37.4218 -64.8433 0.0113387 42.9763 -7.04954 -11.427 -10.4633 -18.3197 7.05884 4.64101 0.723045 91.0384 -1.2993 76.5064 22.0413 53.7484 83.163 0.790504 19.9606 3.47903 32.1778 -20.2949 5.71784 -12.455 31.2784 27.1927 -19.0597 -3.72785 -1.40675 -1.31974e-009 1.55935e-007 -4.90031e-009 
89.8061 93.1588 -22.2468 6.22917 4.52679 155.681 -17.6185 -31.557 -10.6134 8.39316 65.927 -9.56378 4.67458 1.05337 -0.28228 0.0462048 0.000533403 0.662642 4.2337 13.0748 -13.529 0.116213 0.0552612 -0.586322 -20.3448 6.53687 46.5373 -8.82781e-032 7.95139e-016 6.36111e-015 -30.8042 -32.765 -67.4281 -2.38885 32.4024 1.33394 -6.74508 -22.606 -22.0245 6.85852 4.5338 1.54725 91.6391 -1.46465 76.5106 21.7149 53.7321 83.3686 1.02306 19.8018 3.36811 32.0408 -21.1416 8.75897 -10.9975 34.3458 24.5734 -21.7357 -3.39466 -1.48275 -1.31974e-009 1.55935e-007 -4.90031e-009 
88.5504 92.5284 -22.5957 6.14368 4.67411 154.728 -18.1515 -33.5762 -12.4086 5.44898 68.3774 -6.15024 5.06928 1.11078 -0.246875 0.0462048 0.000533403 0.662642 3.70362 13.6598 -13.3209 0.123028 0.058502 -0.620712 -20.3708 5.88205 47.0761 7.95139e-016 1.59028e-015 -0 -34.9886 -31.7507 -67.0366 -0.0622987 26.8458 -1.51712 -8.62752 -3.88298 -13.3888 6.76544 4.47195 2.43038 92.1407 -1.80592 76.477 21.4286 53.6801 83.608 1.24447 19.6127 3.33023 31.9732 -21.8628 11.5752 -9.64945 37.1619 22.2325 -24.2902 -3.03886 -1.5383 -1.31974e-009 1.55935e-007 -4.90031e-009 
